PathFileType	4	(X/Y/Z)	/Users/itak/Documents/Research/Walk-IL/dataset/trc/00422_00012.trc
DataRate	CameraRate	NumFrames	NumMarkers	Units	OrigDataRate	OrigDataStartFrame	OrigNumFrames
100.000000	100.000000	4	53	mm	100.000000	390	521
Frame#	Time	RPSI			LPSI			L3			STRN			T10			C7			CLAV			RBAK			LBAK			LSHO			LUPA			LAEL			LAOL			LWTS			LWPS			LFRA			LIFD			LHPS			LHTS			RSHO			RUPA			RAEL			RAOL			RWTS			RWPS			RFRA			RIFD			RHTS			RHPS			RBHD			LFHD			RFHD			LBHD			LHIP			RHIP			RASI			LASI			LKNE			LTHI			LANK			LTIP			LTOE			LMT1			LMT5			LHEE			RKNE			RTHI			RANK			RTIP			RTOE			RMT1			RMT5			RHEE			
		X1	Y1	Z1	X2	Y2	Z2	X3	Y3	Z3	X4	Y4	Z4	X5	Y5	Z5	X6	Y6	Z6	X7	Y7	Z7	X8	Y8	Z8	X9	Y9	Z9	X10	Y10	Z10	X11	Y11	Z11	X12	Y12	Z12	X13	Y13	Z13	X14	Y14	Z14	X15	Y15	Z15	X16	Y16	Z16	X17	Y17	Z17	X18	Y18	Z18	X19	Y19	Z19	X20	Y20	Z20	X21	Y21	Z21	X22	Y22	Z22	X23	Y23	Z23	X24	Y24	Z24	X25	Y25	Z25	X26	Y26	Z26	X27	Y27	Z27	X28	Y28	Z28	X29	Y29	Z29	X30	Y30	Z30	X31	Y31	Z31	X32	Y32	Z32	X33	Y33	Z33	X34	Y34	Z34	X35	Y35	Z35	X36	Y36	Z36	X37	Y37	Z37	X38	Y38	Z38	X39	Y39	Z39	X40	Y40	Z40	X41	Y41	Z41	X42	Y42	Z42	X43	Y43	Z43	X44	Y44	Z44	X45	Y45	Z45	X46	Y46	Z46	X47	Y47	Z47	X48	Y48	Z48	X49	Y49	Z49	X50	Y50	Z50	X51	Y51	Z51	X52	Y52	Z52	X53	Y53	Z53	

391	3.9	128.8026733398438	960.2847900390625	537.9424438476562	261.8447570800781	955.793701171875	537.1934204101562	186.7123718261719	1030.03125	534.9482421875	177.7265167236328	1204.310791015625	755.1663208007812	187.5942077636719	1132.530883789062	515.1838989257812	192.1518859863281	1384.536865234375	528.3084106445312	180.5172119140625	1319.134887695312	692.3663330078125	123.6147155761719	1236.562744140625	494.1282653808594	294.5735168457031	1345.489379882812	520.7744140625	341.3942260742188	1367.6484375	607.72705078125	412.0290222167969	1252.048583984375	589.9606323242188	444.5594787597656	1057.500610351562	614.3233032226562	382.6006774902344	1032.019165039062	560.3399047851562	413.2682800292969	856.834716796875	735.3565063476562	473.9499206542969	837.3310546875	683.278076171875	459.1268615722656	956.1602783203125	641.5198364257812	424.1505737304688	680.231201171875	761.6182861328125	470.2817993164062	755.72509765625	711.073486328125	438.3871765136719	765.2032470703125	765.8897094726562	32.29601669311523	1369.767211914062	583.0313110351562	-27.60593032836914	1303.989868164062	575.2872924804688	-75.25062561035156	1050.411376953125	639.1577758789062	12.77050876617432	1029.812744140625	608.1964721679688	-21.04937171936035	890.5281372070312	828.452392578125	-89.11064910888672	870.4623413085938	806.696044921875	-86.67855834960938	996.7527465820312	686.4508056640625	-19.69645881652832	724.4273071289062	883.6622314453125	-34.14250183105469	796.4686279296875	884.224609375	-86.54578399658203	786.6992797851562	840.6784057617188	107.5831909179688	1565.781860351562	533.193603515625	236.5191497802734	1601.052612304688	679.1337280273438	116.1658020019531	1600.391723632812	662.3912963867188	266.0123901367188	1560.996948242188	539.1568603515625	368.0662231445312	954.0294189453125	629.0073852539062	11.79924011230469	937.0913696289062	616.91162109375	60.31194686889648	954.184326171875	752.50146484375	322.9737854003906	961.2640991210938	744.4016723632812	339.0006408691406	480.4826354980469	796.9152221679688	357.2823181152344	614.38232421875	748.9741821289062	308.1296691894531	40.04162979125977	761.739501953125	333.2825012207031	243.2452697753906	788.798095703125	228.3975067138672	41.76592636108398	973.6574096679688	203.8927154541016	42.544189453125	890.2833251953125	310.9731750488281	40.77933883666992	889.1101684570312	254.5505065917969	36.6549186706543	720.9902954101562	61.16265869140625	452.0844421386719	661.4906005859375	28.0722541809082	706.435546875	699.33984375	74.24894714355469	133.0462188720703	358.8296508789062	70.96968841552734	339.9710998535156	598.4642333984375	195.5133361816406	31.98795890808105	429.7738342285156	192.3706970214844	73.25961303710938	392.2576904296875	96.4351806640625	55.18317031860352	397.7096862792969	110.3703918457031	191.6925506591797	300.6418762207031	
392	3.91	130.9796752929688	960.2791748046875	544.2781372070312	264.0547485351562	956.5870971679688	544.0689086914062	189.03759765625	1030.44189453125	542.182861328125	178.6882171630859	1204.608764648438	762.3693237304688	190.0819244384766	1133.13037109375	522.7443237304688	194.4846801757812	1385.119750976562	535.6170043945312	181.771240234375	1319.4638671875	699.6524658203125	126.1852111816406	1237.120361328125	500.9341430664062	296.978759765625	1346.098510742188	528.689453125	343.1585388183594	1368.15966796875	616.0443115234375	414.1759643554688	1252.561279296875	599.2044067382812	446.8916931152344	1058.10546875	625.0133056640625	385.7286376953125	1032.404174804688	570.0525512695312	413.9193725585938	859.5828857421875	748.44580078125	475.2230834960938	839.0104370117188	697.5119018554688	461.0399780273438	957.2131958007812	653.6549072265625	424.65185546875	683.7246704101562	778.90087890625	471.1829528808594	758.0328979492188	727.0031127929688	438.6922302246094	768.7955932617188	781.243408203125	34.26955413818359	1370.18359375	589.4705810546875	-25.46245765686035	1304.280883789062	581.2096557617188	-73.36307525634766	1050.277954101562	642.9514770507812	14.85685253143311	1030.078247070312	612.5979614257812	-21.50353813171387	886.44482421875	829.4197998046875	-89.29618835449219	866.9531860351562	806.499267578125	-85.24566650390625	995.88330078125	689.3139038085938	-20.6613712310791	719.2537841796875	880.9868774414062	-35.4801139831543	791.234130859375	883.0044555664062	-87.10970306396484	782.4185791015625	838.6085205078125	109.8199844360352	1566.029174804688	539.3823852539062	237.9231719970703	1601.827392578125	685.9151000976562	117.6516036987305	1601.07080078125	668.5049438476562	268.1931762695312	1561.35888671875	546.2177734375	370.0211791992188	954.8947143554688	636.33837890625	13.73278617858887	936.8218994140625	622.8091430664062	61.74140930175781	954.40625	758.6763916015625	324.4125366210938	961.6673583984375	751.5497436523438	340.1126708984375	480.1585998535156	800.9691772460938	358.6227111816406	614.613525390625	754.33349609375	308.1058959960938	40.15627670288086	761.8289794921875	333.7905578613281	242.9233703613281	790.853759765625	228.4197082519531	41.55746078491211	973.8760375976562	203.7602996826172	42.35219955444336	890.3355102539062	310.8898010253906	40.78672790527344	889.1688842773438	254.5617523193359	36.75698089599609	721.0134887695312	61.08129501342773	452.3202514648438	674.5758666992188	29.06720542907715	706.7525634765625	707.7074584960938	74.20102691650391	138.00341796875	367.0877075195312	70.75597381591797	341.1060180664062	610.6714477539062	194.3534240722656	30.79508590698242	434.4351196289062	192.0233154296875	76.58132934570312	399.0164184570312	95.88824462890625	58.08793258666992	402.0859985351562	111.0767593383789	198.6556854248047	311.5882568359375	
393	3.92	132.9613800048828	960.1478881835938	550.3480834960938	266.07666015625	957.2471923828125	550.640625	191.2000427246094	1030.889038085938	549.0527954101562	179.527099609375	1204.832885742188	769.4156494140625	192.3827667236328	1133.728515625	530.0324096679688	196.7264404296875	1385.700561523438	542.8358764648438	182.9577178955078	1319.71533203125	706.7978515625	128.6690673828125	1237.690673828125	507.5565185546875	299.3143310546875	1346.719360351562	536.4951782226562	344.8385620117188	1368.6396484375	624.2559204101562	416.2500305175781	1253.064331054688	608.37109375	449.1729125976562	1058.738525390625	635.7155151367188	388.8563842773438	1032.755004882812	579.7810668945312	414.4999389648438	862.2943725585938	761.3452758789062	476.4080505371094	840.7360229492188	711.5918579101562	462.9072570800781	958.2855834960938	665.7159423828125	425.0755920410156	687.2383422851562	795.8134765625	472.0062561035156	760.3972778320312	742.6922607421875	438.8984985351562	772.3706665039062	796.3139038085938	36.17477035522461	1370.547729492188	595.8021240234375	-23.38763046264648	1304.517578125	586.9768676757812	-71.43170928955078	1050.04638671875	646.4842529296875	17.10571479797363	1030.288818359375	616.9772338867188	-22.00953483581543	882.4873657226562	830.2171630859375	-89.50155639648438	863.5796508789062	806.0763549804688	-83.82034301757812	994.9736938476562	691.9142456054688	-21.91956329345703	714.3629760742188	878.3275146484375	-36.97407531738281	786.2615966796875	881.7083740234375	-87.78978729248047	778.3851928710938	836.4159545898438	111.9561157226562	1566.201538085938	545.5130004882812	239.2515563964844	1602.563720703125	692.6287231445312	119.0488586425781	1601.6904296875	674.5503540039062	270.2955627441406	1561.66796875	553.2266845703125	371.9422302246094	955.756103515625	643.332763671875	15.48260593414307	936.416015625	628.5177001953125	63.17244720458984	954.5438232421875	764.5956420898438	325.8428649902344	962.0694580078125	758.3709106445312	341.0869445800781	479.8478088378906	805.0601806640625	359.8304748535156	614.8734130859375	759.7525024414062	308.0869750976562	40.28061676025391	761.91748046875	334.2480773925781	242.6084136962891	792.9205932617188	228.4603271484375	41.36561965942383	974.0820922851562	203.6470336914062	42.16465759277344	890.393310546875	310.8133239746094	40.80138397216797	889.2193603515625	254.5787048339844	36.86124801635742	721.036376953125	61.05613327026367	452.537109375	687.813232421875	30.00600242614746	707.0320434570312	716.0300903320312	74.47671508789062	142.9247283935547	375.7622985839844	70.68971252441406	342.2002258300781	623.0995483398438	192.6100921630859	29.50212478637695	440.6738586425781	191.6500396728516	80.16878509521484	406.8064270019531	95.38346862792969	61.39889526367188	407.2070617675781	112.0124435424805	205.2596130371094	322.7040100097656	
394	3.93	134.7574768066406	959.9249267578125	556.1632080078125	267.9178466796875	957.7772216796875	556.9221801757812	193.2331390380859	1031.423706054688	555.4496459960938	180.2652282714844	1205.014892578125	776.2927856445312	194.4854125976562	1134.33056640625	537.0496215820312	198.8643646240234	1386.282958984375	549.9441528320312	184.0862426757812	1319.917358398438	713.7827758789062	131.0540618896484	1238.28857421875	513.9777221679688	301.5730590820312	1347.353637695312	544.1688232421875	346.4293823242188	1369.104614257812	632.32763671875	418.2410888671875	1253.572998046875	617.4347534179688	451.3739013671875	1059.4169921875	646.41357421875	391.9448852539062	1033.068969726562	589.5731201171875	415.0144958496094	864.9724731445312	774.0556640625	477.5028076171875	842.5225830078125	725.5032348632812	464.7135925292969	959.3963623046875	677.6915893554688	425.4426879882812	690.74853515625	812.2860717773438	472.7567443847656	762.817626953125	758.1024780273438	439.0297241210938	775.90771484375	811.0698852539062	38.00165557861328	1370.883911132812	602.0137939453125	-21.39376258850098	1304.744140625	592.5906982421875	-69.46107482910156	1049.775024414062	649.7640380859375	19.48683547973633	1030.487182617188	621.313232421875	-22.54111289978027	878.6890258789062	830.847900390625	-89.70947265625	860.3816528320312	805.44775390625	-82.435302734375	994.0699462890625	694.243408203125	-23.48278999328613	709.7599487304688	875.6376953125	-38.54414367675781	781.556396484375	880.333740234375	-88.56796264648438	774.62841796875	834.1138916015625	113.9637222290039	1566.324462890625	551.5690307617188	240.5116271972656	1603.269897460938	699.270263671875	120.3656463623047	1602.270385742188	680.5239868164062	272.3193359375	1561.931518554688	560.1749877929688	373.8287353515625	956.6123046875	650.0133056640625	17.07855033874512	935.9092407226562	634.0743408203125	64.61415100097656	954.619873046875	770.2600708007812	327.2825317382812	962.4754028320312	764.8834228515625	341.9017028808594	479.5511779785156	809.1677856445312	360.886474609375	615.1456298828125	765.172119140625	308.05859375	40.41905212402344	762.0039672851562	334.6464233398438	242.3084411621094	794.9906005859375	228.5124206542969	41.18247985839844	974.2822875976562	203.5523681640625	41.97713088989258	890.455322265625	310.7349548339844	40.82530975341797	889.26220703125	254.5895233154297	36.9703369140625	721.0584106445312	61.09547424316406	452.7787780761719	701.1373901367188	30.89511680603027	707.3080444335938	724.3153076171875	75.06999206542969	147.7452697753906	384.8547973632812	70.76615905761719	343.2844543457031	635.6810302734375	190.2085571289062	28.30856895446777	448.6079711914062	191.2034149169922	83.83510589599609	415.7788391113281	94.87461090087891	65.06379699707031	413.3233032226562	113.2444229125977	211.3517456054688	333.8951416015625	
